<?xml version="1.0" encoding="utf-8"?>
<!-- Generator: Adobe Illustrator 26.2.1, SVG Export Plug-In . SVG Version: 6.00 Build 0)  -->
<svg version="1.1" id="Layer_1" xmlns="http://www.w3.org/2000/svg" xmlns:xlink="http://www.w3.org/1999/xlink" x="0px" y="0px"
	 viewBox="0 0 364.64 62.03" style="enable-background:new 0 0 364.64 62.03;" xml:space="preserve">
<style type="text/css">
	.st0{fill:#373C37;}
</style>
<g>
	<path class="st0" d="M124.07,30.16v-6.03c-4.45-0.14-8.48-1.28-12.1-3.41c-3.61-2.13-6.49-5-8.62-8.62
		c-2.13-3.61-3.27-7.65-3.41-12.1h-6.03c0.1,5.5,1.48,10.54,4.16,15.11c2.68,4.57,6.31,8.2,10.88,10.88
		C113.52,28.67,118.56,30.06,124.07,30.16 M93.91,62.03h5.17c0.14-4.64,1.32-8.83,3.52-12.56c2.2-3.73,5.17-6.7,8.9-8.9
		c3.73-2.2,7.92-3.37,12.56-3.52v-5.17c-5.5,0.1-10.54,1.48-15.11,4.16c-4.57,2.68-8.2,6.31-10.88,10.88
		C95.4,51.49,94.01,56.53,93.91,62.03 M87.88,62.03h4.31c-0.1-5.5-1.48-10.54-4.16-15.11c-2.68-4.57-6.31-8.2-10.88-10.88
		c-4.57-2.68-9.61-4.07-15.11-4.16v4.31c4.79,0.14,9.12,1.35,13,3.63c3.88,2.27,6.95,5.35,9.23,9.23
		C86.53,52.92,87.74,57.25,87.88,62.03 M62.03,30.16v-3.45c-4.98-0.14-9.47-1.39-13.46-3.73c-4-2.34-7.17-5.52-9.51-9.51
		c-2.35-4-3.59-8.48-3.73-13.46h-3.45c0.1,5.5,1.48,10.54,4.16,15.11c2.68,4.57,6.31,8.2,10.88,10.88
		C51.49,28.67,56.53,30.06,62.03,30.16 M0,27.57v2.58c5.5-0.1,10.54-1.48,15.11-4.16c4.57-2.68,8.2-6.31,10.88-10.88
		C28.67,10.54,30.06,5.5,30.16,0h-2.58c-0.14,5.12-1.44,9.74-3.88,13.86c-2.44,4.12-5.72,7.4-9.84,9.84
		C9.74,26.13,5.12,27.43,0,27.57 M28.43,62.03h1.72c-0.1-5.5-1.48-10.54-4.16-15.11c-2.68-4.57-6.31-8.2-10.88-10.88
		C10.54,33.36,5.5,31.97,0,31.88v1.72c5.26,0.14,10.03,1.47,14.29,3.98c4.26,2.51,7.65,5.9,10.16,10.16
		C26.96,52.01,28.29,56.77,28.43,62.03"/>
	<g>
		<path class="st0" d="M264.21,23.04c-1.07-1.62-2.54-2.9-4.42-3.82c-1.88-0.93-3.87-1.39-5.96-1.39c-2.33,0-4.46,0.55-6.38,1.66
			c-1.92,1.11-3.43,2.64-4.54,4.6c-1.11,1.96-1.66,4.18-1.66,6.67c0,2.49,0.55,4.71,1.66,6.67c1.11,1.96,2.62,3.49,4.54,4.59
			c1.92,1.11,4.04,1.66,6.38,1.66c2.1,0,4.08-0.46,5.96-1.39c1.88-0.93,3.35-2.2,4.42-3.83v4.74h2.55V18.3h-2.55V23.04z
			 M262.91,36.24c-0.87,1.6-2.08,2.84-3.65,3.71c-1.57,0.87-3.31,1.3-5.25,1.3c-2.97,0-5.39-0.97-7.26-2.91
			c-1.88-1.93-2.82-4.47-2.82-7.59s0.94-5.65,2.82-7.59c1.88-1.93,4.3-2.9,7.26-2.9c1.94,0,3.68,0.43,5.25,1.3
			c1.56,0.87,2.77,2.11,3.65,3.71c0.87,1.6,1.3,3.43,1.3,5.49S263.78,34.64,262.91,36.24z"/>
		<path class="st0" d="M190.26,24.5c-0.99-2.07-2.4-3.71-4.24-4.89c-1.84-1.19-3.95-1.78-6.32-1.78c-2.37,0-4.52,0.56-6.44,1.69
			c-1.92,1.13-3.42,2.67-4.51,4.63c-1.09,1.96-1.63,4.16-1.63,6.61c0,2.45,0.54,4.65,1.63,6.61c1.09,1.96,2.62,3.5,4.6,4.62
			c1.98,1.13,4.25,1.69,6.82,1.69c2.25,0,4.33-0.49,6.23-1.48c1.9-0.99,3.44-2.29,4.63-3.91l-2.01-1.42
			c-0.91,1.3-2.15,2.36-3.74,3.17c-1.58,0.81-3.26,1.22-5.04,1.22c-2.1,0-3.94-0.45-5.51-1.37c-1.58-0.91-2.8-2.16-3.65-3.76
			c-0.75-1.42-1.12-3-1.2-4.71h21.69C191.68,28.88,191.25,26.57,190.26,24.5z M169.97,29.21c0.16-1.37,0.47-2.67,1.07-3.86
			c0.83-1.62,2.01-2.89,3.53-3.82c1.52-0.93,3.24-1.39,5.13-1.39c2.61,0,4.74,0.87,6.4,2.61c1.66,1.74,2.57,3.89,2.73,6.46H169.97z"
			/>
		<path class="st0" d="M226.79,17.82c-1.98,0-3.77,0.46-5.37,1.36c-1.6,0.91-3.02,2.35-4.24,4.33c-0.75-1.74-1.9-3.12-3.44-4.15
			c-1.54-1.02-3.34-1.54-5.4-1.54c-1.9,0-3.59,0.4-5.07,1.19c-1.48,0.79-2.72,1.94-3.71,3.44V18.3h-2.61v24.91h2.61V28.97
			c0-2.53,0.8-4.62,2.4-6.25c1.6-1.64,3.61-2.46,6.02-2.46c2.25,0,4.05,0.7,5.4,2.11c1.34,1.4,2.01,3.35,2.01,5.84v15h2.61V28.97
			c0-1.66,0.37-3.15,1.13-4.48c0.75-1.32,1.77-2.36,3.05-3.11s2.7-1.13,4.24-1.13c2.29,0,4.11,0.71,5.46,2.13
			c1.35,1.42,2.02,3.36,2.02,5.81v15h2.61V28.08c0-3-0.9-5.47-2.7-7.38S229.68,17.82,226.79,17.82z"/>
		<path class="st0" d="M358.33,40.03c-1.58,0.81-3.26,1.22-5.04,1.22c-2.1,0-3.93-0.45-5.51-1.37c-1.58-0.91-2.8-2.16-3.65-3.76
			c-0.75-1.42-1.12-3-1.2-4.71h21.69c0.12-2.53-0.32-4.84-1.3-6.91c-0.99-2.07-2.4-3.71-4.24-4.89c-1.84-1.19-3.95-1.78-6.32-1.78
			c-2.37,0-4.52,0.56-6.44,1.69c-1.92,1.13-3.42,2.67-4.51,4.63c-1.09,1.96-1.63,4.16-1.63,6.61c0,2.45,0.54,4.65,1.63,6.61
			c1.09,1.96,2.62,3.5,4.6,4.62c1.98,1.13,4.25,1.69,6.82,1.69c2.26,0,4.33-0.49,6.23-1.48c1.9-0.99,3.44-2.29,4.63-3.91l-2.01-1.42
			C361.16,38.17,359.91,39.23,358.33,40.03z M344.1,25.35c0.83-1.62,2.01-2.89,3.53-3.82c1.52-0.93,3.23-1.39,5.13-1.39
			c2.61,0,4.74,0.87,6.4,2.61c1.66,1.74,2.57,3.89,2.73,6.46h-18.87C343.19,27.84,343.49,26.54,344.1,25.35z"/>
		<path class="st0" d="M294.52,23.04c-1.07-1.62-2.53-2.9-4.39-3.82c-1.86-0.93-3.83-1.39-5.93-1.39c-2.37,0-4.52,0.55-6.44,1.66
			c-1.92,1.11-3.43,2.64-4.54,4.6c-1.11,1.96-1.66,4.18-1.66,6.67c0,2.49,0.55,4.71,1.66,6.67c1.11,1.96,2.62,3.49,4.54,4.59
			c1.92,1.11,4.06,1.66,6.44,1.66c2.1,0,4.07-0.46,5.93-1.39c1.86-0.93,3.32-2.2,4.39-3.83v2.2c0,3.28-0.92,5.85-2.76,7.71
			c-1.84,1.86-4.38,2.79-7.62,2.79c-1.78,0-3.45-0.41-5.01-1.24c-1.56-0.83-2.8-1.9-3.71-3.2l-2.07,1.48
			c1.19,1.66,2.73,2.97,4.63,3.95c1.9,0.97,4.03,1.45,6.4,1.45c3.88,0,6.96-1.16,9.25-3.5c2.29-2.34,3.44-5.48,3.44-9.43V18.3h-2.55
			V23.04z M293.21,36.24c-0.87,1.6-2.07,2.84-3.62,3.71c-1.54,0.87-3.3,1.3-5.28,1.3c-1.94,0-3.67-0.44-5.19-1.3
			c-1.52-0.87-2.72-2.11-3.59-3.71c-0.87-1.6-1.3-3.43-1.3-5.48s0.44-3.89,1.3-5.49c0.87-1.6,2.07-2.83,3.59-3.71
			c1.52-0.87,3.25-1.3,5.19-1.3c1.98,0,3.74,0.43,5.28,1.3c1.54,0.87,2.75,2.11,3.62,3.71c0.87,1.6,1.3,3.43,1.3,5.49
			S294.08,34.64,293.21,36.24z"/>
		<path class="st0" d="M330.63,19.25c-1.58-0.95-3.44-1.42-5.57-1.42c-3.95,0-7,1.54-9.13,4.63V18.3h-2.61v24.91h2.61V28.97
			c0-2.53,0.82-4.62,2.46-6.25c1.64-1.64,3.72-2.46,6.25-2.46c2.65,0,4.7,0.78,6.14,2.34s2.16,3.68,2.16,6.37v14.23h2.61V28.68
			c0-2.01-0.42-3.85-1.27-5.51C333.43,21.5,332.22,20.2,330.63,19.25z"/>
		<path class="st0" d="M305.19,9.17c-0.51,0-0.94,0.17-1.27,0.51c-0.34,0.33-0.51,0.76-0.51,1.28s0.17,0.94,0.51,1.28
			c0.33,0.33,0.76,0.5,1.27,0.5c0.48,0,0.89-0.17,1.25-0.5c0.36-0.34,0.53-0.76,0.53-1.28s-0.18-0.94-0.53-1.28
			C306.08,9.34,305.67,9.17,305.19,9.17z"/>
		<rect x="303.89" y="18.3" class="st0" width="2.61" height="24.91"/>
	</g>
</g>
</svg>
